<?xml version="1.0" encoding="UTF-8" standalone="no"?>
<!-- Created with Inkscape (http://www.inkscape.org/) -->

<svg
   width="100mm"
   height="100mm"
   viewBox="0 0 100 100"
   version="1.1"
   id="svg1"
   xml:space="preserve"
   inkscape:version="1.3.2 (091e20ef0f, 2023-11-25)"
   sodipodi:docname="logo.svg"
   xmlns:inkscape="http://www.inkscape.org/namespaces/inkscape"
   xmlns:sodipodi="http://sodipodi.sourceforge.net/DTD/sodipodi-0.dtd"
   xmlns:xlink="http://www.w3.org/1999/xlink"
   xmlns="http://www.w3.org/2000/svg"
   xmlns:svg="http://www.w3.org/2000/svg"
   xmlns:rdf="http://www.w3.org/1999/02/22-rdf-syntax-ns#"
   xmlns:cc="http://creativecommons.org/ns#"><sodipodi:namedview
     id="namedview1"
     pagecolor="#ffffff"
     bordercolor="#000000"
     borderopacity="0.25"
     inkscape:showpageshadow="2"
     inkscape:pageopacity="0.0"
     inkscape:pagecheckerboard="0"
     inkscape:deskcolor="#d1d1d1"
     inkscape:document-units="mm"
     inkscape:zoom="0.92381453"
     inkscape:cx="361.0032"
     inkscape:cy="323.65804"
     inkscape:window-width="1920"
     inkscape:window-height="1080"
     inkscape:window-x="0"
     inkscape:window-y="0"
     inkscape:window-maximized="1"
     inkscape:current-layer="layer1" /><defs
     id="defs1"><pattern
       inkscape:collect="always"
       xlink:href="#pattern2853"
       id="pattern2864"
       patternTransform="translate(42.23939,37.38575)" /><pattern
       inkscape:collect="always"
       xlink:href="#pattern2838"
       id="pattern2845"
       patternTransform="translate(44.04167,18.04166)" /><linearGradient
       id="linearGradient2826"><stop
         style="stop-color:#dfb585;stop-opacity:1;"
         offset="0"
         id="stop2828" /><stop
         style="stop-color:black;stop-opacity:1;"
         offset="1"
         id="stop2830" /></linearGradient><linearGradient
       id="linearGradient2791"><stop
         style="stop-color:#4d95ee;stop-opacity:1;"
         offset="0"
         id="stop2793" /><stop
         style="stop-color:black;stop-opacity:1;"
         offset="1"
         id="stop2795" /></linearGradient><linearGradient
       inkscape:collect="always"
       xlink:href="#linearGradient2791"
       id="linearGradient2797"
       x1="213.11461"
       y1="113.20445"
       x2="213.11461"
       y2="351.95709"
       gradientUnits="userSpaceOnUse"
       gradientTransform="translate(0,6)" /><linearGradient
       inkscape:collect="always"
       xlink:href="#linearGradient2826"
       id="linearGradient2832"
       x1="193.60881"
       y1="116.54642"
       x2="193.60881"
       y2="345.21436"
       gradientUnits="userSpaceOnUse" /><pattern
       patternUnits="userSpaceOnUse"
       width="31.916666"
       height="9.916667"
       patternTransform="translate(19.375,-47.29167)"
       id="pattern2838"><rect
         y="0.625"
         x="0.625"
         height="8.666667"
         width="30.666666"
         id="rect2836"
         style="opacity:1;fill:#7b6c52;fill-opacity:1;fill-rule:nonzero;stroke:#2d271e;stroke-width:1.25;stroke-linecap:butt;stroke-linejoin:miter;stroke-miterlimit:4;stroke-dasharray:none;stroke-dashoffset:0;stroke-opacity:1" /></pattern><pattern
       patternUnits="userSpaceOnUse"
       width="34.958335"
       height="9.916667"
       patternTransform="translate(44.04167,18.04167)"
       id="pattern2853"><g
         id="g2849"
         transform="translate(-44.04167,-18.04167)"><rect
           style="fill:url(#pattern2845);stroke:none"
           width="31.916666"
           height="9.916667"
           x="44.041668"
           y="18.041666"
           id="rect2841" /><rect
           style="opacity:0;fill:#00cd0f;fill-opacity:1;fill-rule:nonzero;stroke:none;stroke-width:1.25;stroke-linecap:butt;stroke-linejoin:miter;stroke-miterlimit:4;stroke-dasharray:none;stroke-dashoffset:0;stroke-opacity:1"
           id="rect2847"
           width="9.166667"
           height="2.5833333"
           x="69.833336"
           y="21.916666" /></g></pattern></defs><g
     inkscape:label="Layer 1"
     inkscape:groupmode="layer"
     id="layer1"><g
       id="g4"
       transform="matrix(0.15875,0,0,0.15875,-3.8018304,-0.36145313)"> 	<path
   id="teabag"
   style="fill:#ffffff"
   d="M 395.9,484.2 269,423.2 c -12.5,-6 -17.9,-21.2 -11.8,-33.8 l 61,-126.9 c 6,-12.5 21.2,-17.9 33.8,-11.8 17.2,8.3 27.1,13 27.1,13 l -0.1,-109.2 16.7,-0.1 0.1,117.1 c 0,0 57.4,24.2 83.1,40.1 3.7,2.3 10.2,6.8 12.9,14.4 2.1,6.1 2,13.1 -1,19.3 l -61,126.9 c -6.2,12.7 -21.4,18.1 -33.9,12 z" /> 	<g
   id="g3"
   transform="translate(-3.8,-19.6)"> 		<g
   id="g2"> 			<path
   style="fill:#609926"
   d="m 622.7,149.8 c -4.1,-4.1 -9.6,-4 -9.6,-4 0,0 -117.2,6.6 -177.9,8 -13.3,0.3 -26.5,0.6 -39.6,0.7 0,39.1 0,78.2 0,117.2 -5.5,-2.6 -11.1,-5.3 -16.6,-7.9 0,-36.4 -0.1,-109.2 -0.1,-109.2 -29,0.4 -89.2,-2.2 -89.2,-2.2 0,0 -141.4,-7.1 -156.8,-8.5 -9.8,-0.6 -22.5,-2.1 -39,1.5 -8.7,1.8 -33.5,7.4 -53.8,26.9 -45,40.1 -33.5,103.9 -32.1,113.5 1.7,11.7 6.9,44.2 31.7,72.5 45.8,56.1 144.4,54.8 144.4,54.8 0,0 12.1,28.9 30.6,55.5 25,33.1 50.7,58.9 75.7,62 63,0 188.9,-0.1 188.9,-0.1 0,0 12,0.1 28.3,-10.3 14,-8.5 26.5,-23.4 26.5,-23.4 0,0 12.9,-13.8 30.9,-45.3 5.5,-9.7 10.1,-19.1 14.1,-28 0,0 55.2,-117.1 55.2,-231.1 -1.1,-34.5 -9.6,-40.6 -11.6,-42.6 z M 125.6,353.9 c -25.9,-8.5 -36.9,-18.7 -36.9,-18.7 0,0 -19.1,-13.4 -28.7,-39.8 -16.5,-44.2 -1.4,-71.2 -1.4,-71.2 0,0 8.4,-22.5 38.5,-30 13.8,-3.7 31,-3.1 31,-3.1 0,0 7.1,59.4 15.7,94.2 7.2,29.2 24.8,77.7 24.8,77.7 0,0 -26.1,-3.1 -43,-9.1 z m 300.3,107.6 c 0,0 -6.1,14.5 -19.6,15.4 -5.8,0.4 -10.3,-1.2 -10.3,-1.2 0,0 -0.3,-0.1 -5.3,-2.1 l -112.9,-55 c 0,0 -10.9,-5.7 -12.8,-15.6 -2.2,-8.1 2.7,-18.1 2.7,-18.1 L 322,273 c 0,0 4.8,-9.7 12.2,-13 0.6,-0.3 2.3,-1 4.5,-1.5 8.1,-2.1 18,2.8 18,2.8 L 467.4,315 c 0,0 12.6,5.7 15.3,16.2 1.9,7.4 -0.5,14 -1.8,17.2 -6.3,15.4 -55,113.1 -55,113.1 z"
   id="path1" /> 			<path
   style="fill:#609926"
   d="m 326.8,380.1 c -8.2,0.1 -15.4,5.8 -17.3,13.8 -1.9,8 2,16.3 9.1,20 7.7,4 17.5,1.8 22.7,-5.4 5.1,-7.1 4.3,-16.9 -1.8,-23.1 l 24,-49.1 c 1.5,0.1 3.7,0.2 6.2,-0.5 4.1,-0.9 7.1,-3.6 7.1,-3.6 4.2,1.8 8.6,3.8 13.2,6.1 4.8,2.4 9.3,4.9 13.4,7.3 0.9,0.5 1.8,1.1 2.8,1.9 1.6,1.3 3.4,3.1 4.7,5.5 1.9,5.5 -1.9,14.9 -1.9,14.9 -2.3,7.6 -18.4,40.6 -18.4,40.6 -8.1,-0.2 -15.3,5 -17.7,12.5 -2.6,8.1 1.1,17.3 8.9,21.3 7.8,4 17.4,1.7 22.5,-5.3 5,-6.8 4.6,-16.3 -1.1,-22.6 1.9,-3.7 3.7,-7.4 5.6,-11.3 5,-10.4 13.5,-30.4 13.5,-30.4 0.9,-1.7 5.7,-10.3 2.7,-21.3 -2.5,-11.4 -12.6,-16.7 -12.6,-16.7 -12.2,-7.9 -29.2,-15.2 -29.2,-15.2 0,0 0,-4.1 -1.1,-7.1 -1.1,-3.1 -2.8,-5.1 -3.9,-6.3 4.7,-9.7 9.4,-19.3 14.1,-29 -4.1,-2 -8.1,-4 -12.2,-6.1 -4.8,9.8 -9.7,19.7 -14.5,29.5 -6.7,-0.1 -12.9,3.5 -16.1,9.4 -3.4,6.3 -2.7,14.1 1.9,19.8 -8.2,16.8 -16.4,33.6 -24.6,50.4 z"
   id="path2" /> 		</g> 	</g> </g><g
       id="g1"
       transform="matrix(0.50182484,0,0,0.35249319,-51.630035,18.972095)"><path
         id="path2799"
         style="fill:#7b6c52;fill-opacity:1;fill-rule:nonzero;stroke:#2d271e;stroke-width:1.25;stroke-linecap:butt;stroke-linejoin:miter;stroke-miterlimit:4;stroke-dashoffset:0;stroke-opacity:1"
         d="m 341.66665,225.23539 c 0,-12.89512 0,-90.69934 0,-105.23535 0,-29.072012 23.59467,-52.666688 52.66669,-52.666688 29.07201,0 52.66668,23.594676 52.66668,52.666688 L 418.05691,30.666667 H -18.056812 L -47.00002,120.00004 c 0,-29.072012 23.594674,-52.666688 52.666691,-52.666688 29.07201,0 52.66668,23.594676 52.66668,52.666688 0,14.53601 0,92.94011 0,105.23535 m 24.222179,0 c 0,-12.89512 0,-90.69934 0,-105.23535 0,-29.072012 23.59467,-52.666688 52.66669,-52.666688 29.07201,0 52.66668,23.594676 52.66668,52.666688 0,14.53601 0,92.94011 0,105.23535 m 24.22219,0 c 0,-12.89512 0,-90.69934 0,-105.23535 0,-29.072012 23.59467,-52.666688 52.66669,-52.666688 29.07201,0 52.66668,23.594676 52.66668,52.666688 0,14.53601 0,92.94011 0,105.23535"
         sodipodi:nodetypes="cssccccssccsssccsssc" /><path
         style="opacity:0.7;fill:url(#linearGradient2797);fill-opacity:1;fill-rule:evenodd;stroke:#447cc1;stroke-width:1px;stroke-linecap:butt;stroke-linejoin:miter;stroke-opacity:1"
         d="m -6.6627813,217.65413 c 0,-28.37004 -13.1115797,-86.58823 0.4458511,-86.32344 84.6560832,1.65344 142.3439102,8.5 158.4814802,9.29365 32.27513,1.5873 58.20106,-4.23281 97.8836,-6.34921 39.68254,-2.1164 74.60317,3.70371 107.93651,3.17461 33.33333,-0.52911 37.43386,-3.96826 49.73545,-2.64551 24.08055,2.58931 3.8201,42.09524 3.8201,86.01059"
         id="path1884"
         sodipodi:nodetypes="csssssc" /><path
         style="fill:url(#linearGradient2832);fill-opacity:1;fill-rule:evenodd;stroke:#784e1f;stroke-width:1px;stroke-linecap:butt;stroke-linejoin:miter;stroke-opacity:1"
         d="m 421.31443,97.523845 c 0,45.301975 0.5609,104.044905 0.5609,134.045145 -16.37801,0 -353.393449,-0.38532 -443.099849,-0.38532 0,-56.46314 2.984043,-109.38808 2.984043,-131.793769 18.28607177,11.882619 77.988729,47.037439 100.205554,47.891979 20.738622,0.25077 67.905562,22.79584 87.636022,28.15857 27.56341,2.34862 53.84138,-12.31897 81.50416,-8.10339 24.90771,1.58959 53.62348,2.5399 72.71854,-17.45229 15.32619,-12.89213 35.5339,-14.37299 53.87064,-18.56564 13.90946,-6.12504 36.38842,-20.82213 43.61999,-33.795285 z"
         id="path1875"
         sodipodi:nodetypes="cccccccccc" /><rect
         style="opacity:1;fill:url(#pattern2864);fill-opacity:1;fill-rule:nonzero;stroke-width:1.25;stroke-linecap:butt;stroke-linejoin:miter;stroke-miterlimit:4;stroke-dasharray:none;stroke-dashoffset:0;stroke-opacity:1"
         id="rect2834"
         width="445.33334"
         height="10"
         x="-24.468958"
         y="17.34409" /></g></g><metadata
     id="metadata1"><rdf:RDF><cc:Work
         rdf:about=""><cc:license
           rdf:resource="http://creativecommons.org/publicdomain/zero/1.0/" /></cc:Work><cc:License
         rdf:about="http://creativecommons.org/publicdomain/zero/1.0/"><cc:permits
           rdf:resource="http://creativecommons.org/ns#Reproduction" /><cc:permits
           rdf:resource="http://creativecommons.org/ns#Distribution" /><cc:permits
           rdf:resource="http://creativecommons.org/ns#DerivativeWorks" /></cc:License></rdf:RDF></metadata></svg>
